<svg xmlns="http://www.w3.org/2000/svg" width="471.83" height="286.72" viewBox="0 0 471.83 286.72">
  <style>
      .a {
        fill: none;
        stroke: #000;
        stroke-miterlimit: 10;
        stroke-width: 5px;
      }
    </style>
  <defs>
    <style>
        .a {
          stroke-dasharray: 2500;
          stroke-dashoffset: 0;
          -webkit-animation: dash 2s linear forwards;
          animation: dash 2s linear forwards;
      }
      @-webkit-key-frames dash {
          from {
              stroke-dashoffset: 2500;
          }
          to {
              stroke-dashoffset: 0;
          }
      }
    </style>
  </defs>
  <title>logo</title>
  <circle cx="406.95" cy="62.48" r="8.1"/>
  <polyline class="a" points="203.77 285.46 4.28 85.97 73.33 85.97 140.05 86.33 277.21 86.33 260.55 72.01 97.78 72.01 27.55 1.77 47.02 1.77 191.69 146.44 179.55 158.24 120.55 99.14 86.01 99.14 195.31 212.58 219.55 187.24 207.16 174.86 215 167.02 227.93 179.96 310.6 97.29 310.6 86.24 238.55 13.24 249.18 13.37 322 86.19 467.55 86.35 394.73 13.54 363.26 45.01"/>
  <!-- <polyline class="a" points="203.77 285.46 4.28 85.97 73.33 85.97 140.05 86.33 277.21 86.33 260.55 72.01 97.78 72.01 27.55 1.77 47.02 1.77 191.69 146.44 179.55 158.24 120.55 99.14 86.01 99.14 195.31 212.58 219.55 187.24 207.16 174.86 215 167.02 227.93 179.96 310.6 97.29 310.6 86.24 238.55 13.24 249.18 13.37 322 86.19 467.55 86.35 394.73 13.54 363.26 45.01"/> -->
</svg>
